<svg xmlns="http://www.w3.org/2000/svg" xmlns:xlink="http://www.w3.org/1999/xlink" width="794" zoomAndPan="magnify" viewBox="0 0 595.5 842.249979" height="1123" preserveAspectRatio="xMidYMid meet" version="1.0"><defs><clipPath id="51580ab312"><path d="M 178.4375 293.691406 L 415.976562 293.691406 L 415.976562 547.714844 L 178.4375 547.714844 Z M 178.4375 293.691406 " clip-rule="nonzero"/></clipPath><clipPath id="b168b2b415"><path d="M 179 263.800781 L 415 263.800781 L 415 577.019531 L 179 577.019531 Z M 179 263.800781 " clip-rule="nonzero"/></clipPath><clipPath id="f405ca0fe7"><path d="M 351 263.800781 L 415.976562 263.800781 L 415.976562 331 L 351 331 Z M 351 263.800781 " clip-rule="nonzero"/></clipPath></defs><g clip-path="url(#51580ab312)"><path fill="#000099" d="M 415.976562 420.703125 L 392.222656 420.703125 L 392.222656 357.199219 L 328.878906 293.695312 L 202.191406 293.695312 L 202.191406 420.703125 L 178.4375 420.703125 L 178.4375 500.082031 L 202.191406 500.082031 L 202.191406 547.710938 L 392.222656 547.710938 L 392.222656 500.082031 L 415.976562 500.082031 L 415.976562 420.703125 " fill-opacity="1" fill-rule="nonzero"/></g><path fill="#ffffff" d="M 210.105469 539.773438 L 384.300781 539.773438 L 384.300781 500.082031 L 210.105469 500.082031 Z M 328.878906 304.929688 L 328.878906 357.199219 L 381.015625 357.199219 Z M 320.960938 365.136719 L 320.960938 301.632812 L 210.105469 301.632812 L 210.105469 420.703125 L 384.300781 420.703125 L 384.300781 365.136719 Z M 323.613281 459.917969 C 323.613281 446.78125 315.65625 435.835938 301.074219 435.835938 C 287.054688 435.835938 277.96875 446.496094 277.96875 460.761719 C 277.96875 474.320312 286.214844 484.984375 300.300781 484.984375 C 314.175781 484.984375 323.613281 475.519531 323.613281 459.917969 Z M 289.3125 460.554688 C 289.3125 451.300781 293.535156 444.382812 300.796875 444.382812 C 308.1875 444.382812 312.269531 451.722656 312.269531 460.269531 C 312.269531 469.515625 308.117188 476.4375 300.863281 476.4375 C 293.675781 476.4375 289.3125 469.875 289.3125 460.554688 Z M 273.089844 459.28125 C 273.089844 450.878906 269.988281 445.019531 265.058594 441.34375 C 260.480469 437.882812 254.636719 436.257812 245.617188 436.257812 C 240.199219 436.257812 235.054688 436.613281 231.105469 437.25 L 231.105469 483.992188 C 233.789062 484.347656 237.730469 484.703125 243.289062 484.703125 C 252.59375 484.703125 260.203125 482.722656 265.195312 478.558594 C 269.78125 474.671875 273.089844 468.390625 273.089844 459.28125 Z M 245.617188 476.300781 C 244.28125 476.300781 242.804688 476.300781 241.882812 476.089844 L 241.882812 444.945312 C 242.804688 444.734375 244.351562 444.523438 246.746094 444.523438 C 255.972656 444.523438 261.746094 449.746094 261.675781 459.636719 C 261.675781 471 255.335938 476.371094 245.617188 476.300781 Z M 354.914062 444.734375 C 358.71875 444.734375 361.742188 445.578125 363.929688 446.496094 L 366.113281 437.957031 C 364.207031 436.964844 359.980469 435.835938 354.421875 435.835938 C 340.050781 435.835938 328.5 444.875 328.5 461.113281 C 328.5 474.671875 336.953125 484.914062 353.359375 484.914062 C 359.136719 484.914062 363.574219 483.855469 365.546875 482.867188 L 363.929688 474.464844 C 361.8125 475.308594 358.226562 476.019531 354.984375 476.019531 C 345.402344 476.019531 339.765625 470.011719 339.765625 460.480469 C 339.765625 449.890625 346.386719 444.734375 354.914062 444.734375 " fill-opacity="1" fill-rule="nonzero"/><g clip-path="url(#b168b2b415)"><path fill="#185abd" d="M 413.527344 324.59375 L 357.390625 265.539062 C 356.234375 264.378906 355.078125 263.800781 353.339844 263.800781 L 193.042969 263.800781 C 185.519531 263.800781 179.152344 270.167969 179.152344 278.273438 L 179.152344 561.96875 C 179.152344 570.074219 185.519531 577.019531 193.042969 577.019531 L 400.792969 577.019531 C 408.316406 577.019531 414.683594 570.652344 414.683594 561.96875 L 414.683594 328.066406 C 415.261719 326.90625 414.683594 325.171875 413.527344 324.59375 Z M 413.527344 324.59375 " fill-opacity="1" fill-rule="nonzero"/></g><g clip-path="url(#f405ca0fe7)"><path fill="#221f1f" d="M 415.261719 328.066406 L 415.261719 329.800781 C 414.683594 329.800781 414.105469 330.382812 413.527344 330.382812 L 356.8125 330.382812 C 353.921875 330.382812 351.605469 328.066406 351.605469 325.171875 L 351.605469 266.117188 C 351.605469 265.539062 351.605469 264.957031 352.183594 263.800781 L 353.921875 263.800781 C 355.078125 263.800781 356.234375 264.378906 357.390625 265.539062 L 414.105469 324.59375 C 414.683594 325.171875 415.261719 326.90625 415.261719 328.066406 Z M 415.261719 328.066406 " fill-opacity="0.35" fill-rule="nonzero"/></g><path fill="#ffffff" d="M 220.820312 306.644531 L 313.992188 306.644531 L 313.992188 387.699219 L 220.820312 387.699219 Z M 220.820312 306.644531 " fill-opacity="1" fill-rule="nonzero"/><path fill="#ffffff" d="M 220.820312 411.4375 L 376.488281 411.4375 L 376.488281 435.175781 L 220.820312 435.175781 Z M 220.820312 411.4375 " fill-opacity="1" fill-rule="nonzero"/><path fill="#ffffff" d="M 220.820312 456.597656 L 337.71875 456.597656 L 337.71875 480.335938 L 220.820312 480.335938 Z M 220.820312 456.597656 " fill-opacity="1" fill-rule="nonzero"/><path fill="#ffffff" d="M 220.820312 503.492188 L 313.992188 503.492188 L 313.992188 527.230469 L 220.820312 527.230469 Z M 220.820312 503.492188 " fill-opacity="1" fill-rule="nonzero"/><path fill="#185abd" d="M 245.125 375.539062 L 231.816406 319.382812 L 242.8125 319.382812 C 242.8125 319.382812 250.332031 359.328125 251.492188 364.539062 C 252.648438 358.75 253.804688 351.804688 255.542969 344.855469 L 261.328125 319.382812 L 272.902344 319.382812 C 272.902344 319.382812 282.160156 358.171875 283.320312 364.539062 C 284.476562 358.171875 292 319.382812 292 319.382812 L 302.417969 319.382812 L 289.683594 375.542969 L 277.53125 375.542969 C 277.53125 375.542969 268.273438 337.328125 267.117188 330.960938 C 265.957031 336.75 257.855469 375.542969 257.855469 375.542969 L 245.125 375.542969 Z M 245.125 375.539062 " fill-opacity="1" fill-rule="nonzero"/></svg>